<svg xmlns="http://www.w3.org/2000/svg" width="178.074" height="82.577" viewBox="0 0 178.074 82.577"><g transform="translate(-64.047 -46.422)"><g transform="translate(65 74)"><text transform="translate(67.121 41.746)" fill="#fff" font-size="20" font-family="SegoeUI, Segoe UI"><tspan x="0" y="0">KREATIVITÄT</tspan></text><text transform="translate(-0.953 42.042)" fill="#fff" font-size="12" font-family="SegoeUI, Segoe UI"><tspan x="0" y="0">unendliche</tspan></text><text transform="translate(27.275 22.783)" fill="#fff" font-size="30" font-family="SegoeUI, Segoe UI"><tspan x="0" y="0">Schenke</tspan></text></g><path d="M169.791,68.769l2.174,1.543-.725,1.229-2.44-1.085-.242,2.628h-1.45l-.242-2.628-2.416,1.085-.725-1.229,2.175-1.543-2.175-1.543.725-1.23,2.416,1.085.242-2.628h1.45l.242,2.628L171.241,66l.725,1.23Z" fill="#e32d31"/><path d="M199.319,124.683l2.175,1.543-.725,1.229-2.44-1.085L198.087,129h-1.45l-.242-2.628-2.416,1.085-.725-1.229,2.175-1.543-2.175-1.543.725-1.23L196.4,123l.242-2.628h1.45l.242,2.628,2.44-1.085.725,1.23Z" fill="#e32d31"/><path d="M215.613,50.738l2.175,1.543-.725,1.229-2.44-1.085-.242,2.628h-1.45l-.242-2.628-2.416,1.085-.725-1.229,2.175-1.543-2.175-1.543.725-1.23,2.416,1.085.242-2.628h1.45l.242,2.628,2.44-1.085.725,1.23Z" fill="#fff"/><path d="M125.853,61.319l2.175,1.543-.725,1.229-2.44-1.085-.242,2.628h-1.45l-.242-2.628-2.416,1.085-.725-1.229,2.175-1.543-2.175-1.543.725-1.229,2.416,1.085L123.171,57h1.45l.242,2.628,2.44-1.085.725,1.229Z" fill="#fff"/><path d="M79.676,98.7l2.175,1.543-.725,1.229-2.441-1.085-.242,2.628h-1.45l-.242-2.628-2.416,1.085-.725-1.229L75.786,98.7l-2.175-1.543.725-1.23,2.416,1.085.242-2.628h1.45l.242,2.628,2.441-1.085.725,1.23Z" fill="#fff"/><path d="M230.824,81.23,233,82.773,232.273,84l-2.441-1.085-.241,2.628h-1.45l-.242-2.628L225.484,84l-.725-1.229,2.175-1.543-2.175-1.543.725-1.23,2.416,1.085.242-2.628h1.45l.241,2.628,2.441-1.085.725,1.23Z" fill="#fff"/></g></svg>