<svg xmlns="http://www.w3.org/2000/svg" width="30" height="30" viewBox="0 0 30 30"><g transform="translate(-285 -459.34)"><text transform="translate(285 459.34)" fill="#fff" font-size="12" font-family="SegoeUI, Segoe UI"><tspan x="2.578" y="13">- w -</tspan></text><path d="M3.2,3.035H0V2.279H3.2ZM15.773,0l-1.8,6h-1L11.742,1.705a2.8,2.8,0,0,1-.094-.557h-.023a2.628,2.628,0,0,1-.123.545L10.16,6H9.2L7.383,0H8.391L9.633,4.512a2.718,2.718,0,0,1,.082.539h.047A2.521,2.521,0,0,1,9.867,4.5L11.25,0h.879l1.242,4.523a3.229,3.229,0,0,1,.088.539h.047a2.493,2.493,0,0,1,.1-.539L14.824,0Zm7.471,3.035h-3.2V2.279h3.2Z" transform="translate(288.422 466.616)" fill="#fff"/></g></svg>